<svg width="1536" height="1080" viewBox="0 0 1536 1080" fill="none" xmlns="http://www.w3.org/2000/svg">
<path d="M720.036 1563.25L536.482 1563.25C281.661 1563.25 75.1182 1356.7 75.1181 1101.88C75.1181 847.062 281.661 640.519 536.482 640.519L720.036 640.519" stroke="#FFF5E4" stroke-width="150" stroke-miterlimit="10"/>
<path d="M933.54 640.516L720.028 640.516" stroke="#FFF5E4" stroke-width="150" stroke-miterlimit="10"/>
<path d="M720.028 640.409L720.028 853.992" stroke="#FFF5E4" stroke-width="150" stroke-miterlimit="10"/>
<path d="M720.062 640.447L720.062 458.689C720.062 203.868 926.605 -2.67494 1181.43 -2.67495C1436.25 -2.67496 1642.79 203.868 1642.79 458.689L1642.79 1455.48C1642.79 1514.97 1594.51 1563.25 1535.03 1563.25L719.99 1563.25" stroke="#FFF5E4" stroke-width="150" stroke-miterlimit="10"/>
<path d="M933.54 640.449C1051.5 640.449 1147.05 736.07 1147.05 853.961C1147.05 971.852 1051.43 1067.47 933.54 1067.47C815.649 1067.47 720.028 971.852 720.028 853.961" stroke="#FFF5E4" stroke-width="150" stroke-miterlimit="10"/>
</svg>
