<svg width="168" height="37" viewBox="0 0 168 37" fill="none" xmlns="http://www.w3.org/2000/svg">
<path d="M2 15.6438V11.8973C2 6.69619 6.2159 2.48047 11.4172 2.48047C16.6186 2.48047 20.8345 6.69619 20.8345 11.8973V15.6438" stroke="#FFAD1E" stroke-width="3.47324" stroke-miterlimit="10"/>
<path d="M20.8359 20.0025V15.6445" stroke="#FFAD1E" stroke-width="3.47324" stroke-miterlimit="10"/>
<path d="M20.8362 15.6445H16.4766" stroke="#FFAD1E" stroke-width="3.47324" stroke-miterlimit="10"/>
<path d="M20.8359 15.646H24.5459C29.7472 15.646 33.9631 19.8617 33.9631 25.0628C33.9631 30.2639 29.7472 34.4797 24.5459 34.4797H4.1996C2.98542 34.4797 2 33.4943 2 32.2801V15.6445" stroke="#FFAD1E" stroke-width="3.47324" stroke-miterlimit="10"/>
<path d="M20.8354 20.0025C20.8354 22.4102 18.8836 24.3605 16.4773 24.3605C14.0709 24.3605 12.1191 22.4088 12.1191 20.0025C12.1191 17.5962 14.0709 15.6445 16.4773 15.6445" stroke="#FFAD1E" stroke-width="3.47324" stroke-miterlimit="10"/>
<path d="M49.9687 33.4375C46.2724 33.4375 44.2483 31.4134 44.2483 27.7172V7.91604C44.2483 4.21983 45.9644 2.19571 49.0006 2.19571C52.0368 2.19571 53.7089 4.21983 53.7089 7.91604V26.0891H59.3412C62.5974 26.0891 64.4015 27.3652 64.4015 29.7413C64.4015 32.1174 62.5974 33.4375 59.3412 33.4375H49.9687ZM77.9398 34.0095C69.7994 34.0095 65.5751 30.0933 65.5751 22.1729V7.91604C65.5751 4.21983 67.2912 2.19571 70.3274 2.19571C73.3636 2.19571 75.0357 4.21983 75.0357 7.91604V22.6129C75.0357 24.813 76.1357 26.1771 77.9398 26.1771C79.6999 26.1771 80.844 24.813 80.844 22.6129V7.91604C80.844 4.21983 82.4721 2.19571 85.5523 2.19571C88.6324 2.19571 90.3045 4.21983 90.3045 7.91604V22.1729C90.3045 30.0933 86.0803 34.0095 77.9398 34.0095ZM99.5059 33.4375C95.8097 33.4375 93.7855 31.4134 93.7855 27.7172V8.35606C93.7855 4.65985 95.8097 2.63574 99.5059 2.63574H107.25C114.379 2.63574 117.327 6.11193 117.327 10.7762C117.327 13.6364 115.567 15.9685 113.147 16.8926C116.359 18.0806 118.471 20.6768 118.471 24.417C118.471 29.1253 115.303 33.4375 107.558 33.4375H99.5059ZM104.478 26.7491C107.47 26.7491 108.614 25.6491 108.614 23.4489C108.614 21.3808 107.558 20.4128 104.786 20.4128H103.29V26.7491H104.478ZM103.29 14.8244H105.402C107.382 14.8244 108.614 13.8124 108.614 12.0523C108.614 10.2042 107.426 9.28012 105.314 9.28012H103.29V14.8244ZM126.509 33.4375C122.813 33.4375 120.789 31.4134 120.789 27.7172V8.35606C120.789 4.65985 122.813 2.63574 126.509 2.63574H136.982C140.106 2.63574 141.822 3.91181 141.822 6.28794C141.822 8.66408 140.106 9.98416 136.982 9.98416H130.249V14.2524H136.674C139.534 14.2524 141.074 15.4405 141.074 17.5966C141.074 19.7967 139.534 20.9848 136.674 20.9848H130.249V26.0891H137.686C140.81 26.0891 142.526 27.3652 142.526 29.7413C142.526 32.1174 140.81 33.4375 137.686 33.4375H126.509ZM150.332 33.4375C146.636 33.4375 144.612 31.4134 144.612 27.7172V8.35606C144.612 4.65985 146.636 2.63574 150.332 2.63574H160.805C163.929 2.63574 165.645 3.91181 165.645 6.28794C165.645 8.66408 163.929 9.98416 160.805 9.98416H154.072V14.2524H160.497C163.357 14.2524 164.897 15.4405 164.897 17.5966C164.897 19.7967 163.357 20.9848 160.497 20.9848H154.072V26.0891H161.509C164.633 26.0891 166.349 27.3652 166.349 29.7413C166.349 32.1174 164.633 33.4375 161.509 33.4375H150.332Z" fill="#FFAD1E"/>
</svg>
