<svg width="1445" height="738" viewBox="0 0 1445 738" fill="none" xmlns="http://www.w3.org/2000/svg">
<path d="M808.381 208.662C806.815 205.141 806.593 201.026 808.085 197.146C811.067 189.387 819.774 185.515 827.535 188.497L833.125 190.645" stroke="#FFD285" stroke-width="8.60511" stroke-linecap="round" stroke-linejoin="round"/>
<path d="M839.626 193.145L833.123 190.645" stroke="#FFD285" stroke-width="8.60511" stroke-linecap="round" stroke-linejoin="round"/>
<path d="M833.123 190.647L830.624 197.15" stroke="#FFD285" stroke-width="8.60511" stroke-linecap="round" stroke-linejoin="round"/>
<path d="M833.123 190.643L835.25 185.108C838.232 177.349 846.939 173.477 854.7 176.458C858.536 177.933 861.423 180.807 863 184.273" stroke="#FFD285" stroke-width="8.60511" stroke-linecap="round" stroke-linejoin="round"/>
<path d="M839.626 193.146C843.218 194.526 845.01 198.556 843.629 202.148C842.249 205.74 838.219 207.532 834.627 206.152C831.035 204.771 829.243 200.741 830.624 197.149" stroke="#FFD285" stroke-width="8.60511" stroke-linecap="round" stroke-linejoin="round"/>
<path d="M4.41061 31.0284C5.86069 27.4589 8.67125 24.4445 12.5001 22.8279C20.1577 19.5945 28.986 23.1809 32.2216 30.8395L34.5512 36.3568" stroke="#FFD285" stroke-width="8.60511" stroke-linecap="round" stroke-linejoin="round"/>
<path d="M37.2588 42.7734L34.5489 36.3554" stroke="#FFD285" stroke-width="8.60511" stroke-linecap="round" stroke-linejoin="round"/>
<path d="M34.5474 36.354L28.1294 39.0639" stroke="#FFD285" stroke-width="8.60511" stroke-linecap="round" stroke-linejoin="round"/>
<path d="M34.5493 36.3525L40.0116 34.0461C47.6693 30.8127 56.4976 34.3991 59.7331 42.0577C61.3317 45.8438 61.2633 49.9164 59.8604 53.457" stroke="#FFD285" stroke-width="8.60511" stroke-linecap="round" stroke-linejoin="round"/>
<path d="M37.2584 42.772C38.7552 46.3169 37.0951 50.4032 33.5503 51.8999C30.0054 53.3967 25.9191 51.7367 24.4223 48.1918C22.9256 44.647 24.5856 40.5607 28.1304 39.0639" stroke="#FFD285" stroke-width="8.60511" stroke-linecap="round" stroke-linejoin="round"/>
<path d="M1155.18 355.512C1155.31 365.252 1159.02 374.942 1166.29 382.27C1180.84 396.929 1204.12 396.609 1218.28 381.54L1228.48 370.691" stroke="#FFE5B8" stroke-width="13.8166" stroke-linecap="round" stroke-linejoin="round"/>
<path d="M1009.09 357.559C1009.22 367.299 1012.93 376.989 1020.21 384.317C1034.75 398.976 1058.03 398.656 1072.19 383.587L1082.4 372.738" stroke="#FFE5B8" stroke-width="13.8166" stroke-linecap="round" stroke-linejoin="round"/>
<path d="M1094.26 360.113L1082.4 372.738" stroke="#FFE5B8" stroke-width="13.8166" stroke-linecap="round" stroke-linejoin="round"/>
<path d="M1082.4 372.736L1070.21 360.45" stroke="#FFE5B8" stroke-width="13.8166" stroke-linecap="round" stroke-linejoin="round"/>
<path d="M1082.39 372.736L1092.77 383.195C1107.32 397.854 1130.6 397.534 1144.76 382.465C1151.76 375.019 1155.22 365.366 1155.18 355.734" stroke="#FFE5B8" stroke-width="13.8166" stroke-linecap="round" stroke-linejoin="round"/>
<path d="M1094.26 360.112C1100.81 353.141 1100.68 341.986 1093.94 335.201C1087.2 328.42 1076.43 328.562 1069.87 335.54C1063.32 342.51 1063.46 353.665 1070.2 360.45" stroke="#FFE5B8" stroke-width="13.8166" stroke-linecap="round" stroke-linejoin="round"/>
<path d="M933.051 623.496L921.027 635.944C912.989 644.265 902.565 648.621 892.034 649.004" stroke="#B2EDE3" stroke-width="13.8166" stroke-linecap="round" stroke-linejoin="round"/>
<path d="M865.15 608.871L851.023 623.497" stroke="#B2EDE3" stroke-width="13.8166" stroke-linecap="round" stroke-linejoin="round"/>
<path d="M851.023 623.497L836.896 608.871" stroke="#B2EDE3" stroke-width="13.8166" stroke-linecap="round" stroke-linejoin="round"/>
<path d="M851.025 623.496L863.049 635.944C871.087 644.265 881.511 648.621 892.042 649.004" stroke="#B2EDE3" stroke-width="13.8166" stroke-linecap="round" stroke-linejoin="round"/>
<path d="M851.023 623.496L839 635.944C830.962 644.265 820.538 648.621 810.007 649.004" stroke="#B2EDE3" stroke-width="13.8166" stroke-linecap="round" stroke-linejoin="round"/>
<path d="M865.15 608.868C872.953 600.79 872.953 587.695 865.15 579.617C857.347 571.539 844.699 571.539 836.896 579.617C829.093 587.695 829.093 600.79 836.896 608.868" stroke="#B2EDE3" stroke-width="13.8166" stroke-linecap="round" stroke-linejoin="round"/>
<path d="M783.125 608.871L769.005 623.497" stroke="#B2EDE3" stroke-width="13.8166" stroke-linecap="round" stroke-linejoin="round"/>
<path d="M769.004 623.497L754.877 608.871" stroke="#B2EDE3" stroke-width="13.8166" stroke-linecap="round" stroke-linejoin="round"/>
<path d="M769.002 623.496L781.025 635.944C789.063 644.265 799.487 648.621 810.019 649.004" stroke="#B2EDE3" stroke-width="13.8166" stroke-linecap="round" stroke-linejoin="round"/>
<path d="M769.004 623.496L756.98 635.944C748.942 644.265 738.519 648.621 727.987 649.004" stroke="#B2EDE3" stroke-width="13.8166" stroke-linecap="round" stroke-linejoin="round"/>
<path d="M783.124 608.868C790.927 600.79 790.927 587.695 783.124 579.617C775.322 571.539 762.673 571.539 754.87 579.617C747.068 587.695 747.068 600.79 754.87 608.868" stroke="#B2EDE3" stroke-width="13.8166" stroke-linecap="round" stroke-linejoin="round"/>
<path d="M699 635.941C707.038 644.263 717.462 648.619 727.993 649.001" stroke="#B2EDE3" stroke-width="13.8166" stroke-linecap="round" stroke-linejoin="round"/>
<path d="M1034.35 516.493C1033.34 525.135 1025.51 531.318 1016.86 530.302C1008.22 529.287 1002.04 521.458 1003.05 512.816C1004.07 504.174 1011.9 497.991 1020.54 499.006C1029.18 500.022 1035.37 507.851 1034.35 516.493Z" fill="#DDF6F6" stroke="#35D0BA" stroke-width="0.837127"/>
<path d="M986.863 566.981L986.863 566.981L986.856 566.972L945.987 521.863L944.512 494.295L966.207 471.629L993.018 472.407L1015.38 489.564L997.61 516.53L997.429 516.804L997.652 517.044L1015.17 535.996L1015.32 536.159L1015.54 536.126L1029.71 534.008L1030.01 533.963L1030.06 533.663L1034.44 507.396L1034.47 507.234L1034.38 507.097L1022.15 488.538L1041.47 473.817L1070.54 471.794L1094.32 495.072L1094.28 520.836L1023 596.275L1012.55 596.931L986.863 566.981Z" fill="#DDF6F6" stroke="#35D0BA" stroke-width="0.837127"/>
<path d="M964.616 545.263L953.87 534.483C938.955 519.525 938.989 495.306 953.947 480.383C968.905 465.468 993.124 465.502 1008.05 480.461L1018.79 491.24" stroke="#35D0BA" stroke-width="14.6463" stroke-linecap="round" stroke-linejoin="round"/>
<path d="M1031.29 503.777L1018.78 491.242" stroke="#35D0BA" stroke-width="14.6463" stroke-linecap="round" stroke-linejoin="round"/>
<path d="M1018.78 491.243L1006.25 503.742" stroke="#35D0BA" stroke-width="14.6463" stroke-linecap="round" stroke-linejoin="round"/>
<path d="M1018.78 491.244L1029.46 480.604C1044.41 465.689 1068.63 465.722 1083.55 480.681C1098.47 495.639 1098.44 519.858 1083.48 534.781L1024.96 593.127C1021.46 596.609 1015.81 596.601 1012.33 593.111L964.614 545.259" stroke="#35D0BA" stroke-width="14.6463" stroke-linecap="round" stroke-linejoin="round"/>
<path d="M1031.29 503.779C1038.19 510.703 1038.18 521.916 1031.25 528.819C1024.33 535.721 1013.12 535.707 1006.21 528.783C999.31 521.859 999.324 510.646 1006.25 503.743" stroke="#35D0BA" stroke-width="14.6463" stroke-linecap="round" stroke-linejoin="round"/>
<mask id="mask0_1170_12155" style="mask-type:luminance" maskUnits="userSpaceOnUse" x="919" y="565" width="208" height="149">
<path d="M1125.63 654.132C1122.76 674.07 1108.72 690.517 1088.26 700.971C1067.8 711.425 1040.95 715.864 1012.56 711.785C984.167 707.706 959.651 695.886 942.96 680.094C926.269 664.301 917.429 644.566 920.294 624.628C923.159 604.691 937.197 588.243 957.66 577.789C978.122 567.336 1004.97 562.896 1033.36 566.976C1061.75 571.055 1086.27 582.875 1102.96 598.667C1119.65 614.459 1128.49 634.194 1125.63 654.132Z" fill="white" stroke="white" stroke-width="0.837127"/>
</mask>
<g mask="url(#mask0_1170_12155)">
<path d="M1157.13 648.998C1153.15 676.701 1134.93 699.71 1108.64 714.504C1082.34 729.297 1048 735.861 1011.82 730.664C975.654 725.466 944.542 709.497 923.477 687.898C902.413 666.3 891.409 639.092 895.389 611.389C899.37 583.686 917.589 560.677 943.883 545.884C970.177 531.09 1004.53 524.527 1040.7 529.724C1076.87 534.921 1107.98 550.89 1129.04 572.489C1150.11 594.087 1161.11 621.295 1157.13 648.998Z" fill="#35D0BA" stroke="#35D0BA" stroke-width="0.837127"/>
<path d="M1019.18 599.541C1012.22 638.17 1010.84 676.521 1014.96 714.59M1019.18 599.541L1019.59 599.615M1019.18 599.541C1019.18 599.541 1019.18 599.541 1019.18 599.542L1019.59 599.615M1019.18 599.541C1019.74 596.404 1020.35 593.258 1020.99 590.117M1014.96 714.59L1019.59 599.615M1014.96 714.59C1001.85 712.16 989.307 708.049 977.845 702.68L1014.96 714.59ZM1019.59 599.615C1020.15 596.482 1020.76 593.339 1021.4 590.2C1021.43 590.045 1021.46 589.888 1021.49 589.729C1021.52 589.577 1021.55 589.423 1021.58 589.27C1022.41 585.211 1023.31 581.146 1024.27 577.08C1024.34 576.761 1024.42 576.441 1024.5 576.121C1024.58 575.8 1024.66 575.48 1024.74 575.161C1026.48 567.911 1028.41 560.657 1030.53 553.39C1030.39 553.396 1030.24 553.402 1030.09 553.409M1020.99 590.117C1020.99 590.117 1020.99 590.118 1020.99 590.118L1021.4 590.2L1020.99 590.117ZM1020.99 590.117C1021.02 589.969 1021.05 589.818 1021.08 589.662C1021.11 589.507 1021.14 589.348 1021.17 589.189L1021.17 589.186C1022 585.122 1022.9 581.054 1023.86 576.985L1023.86 576.984C1023.94 576.663 1024.02 576.341 1024.1 576.022L1024.1 576.019C1024.18 575.698 1024.26 575.38 1024.33 575.064L1024.33 575.063C1026.06 567.852 1027.98 560.637 1030.09 553.409M1030.09 553.409C1030.13 553.268 1030.18 553.126 1030.22 552.984L980.495 604.611L980.909 604.678C980.909 604.678 980.909 604.678 980.909 604.678C981.316 602.133 981.741 599.593 982.206 597.059L982.206 597.058C983.699 588.842 985.463 580.682 987.538 572.593L987.538 572.592C988.6 568.438 989.765 564.296 990.988 560.17C992.115 559.828 993.254 559.509 994.395 559.196L994.398 559.195C1005.79 556 1017.84 553.969 1030.09 553.409ZM937.426 597.293C932.341 620.484 930.572 643.909 932.248 667.56C922.449 654.718 917.298 640.606 918.641 626.725L918.727 625.84C920.036 614.618 925.56 603.856 934.154 594.203L934.154 594.202C935.75 592.405 937.465 590.657 939.269 588.945C939.324 588.893 939.379 588.842 939.433 588.79C939.401 588.913 939.37 589.036 939.341 589.158C938.655 591.863 938.02 594.575 937.426 597.293ZM1075.02 559.378C1075.07 559.173 1075.13 558.965 1075.18 558.756C1075.27 558.782 1075.35 558.806 1075.43 558.832L1075.43 558.832L1075.43 558.834C1080.31 560.411 1084.9 562.309 1089.22 564.495C1118.01 579.105 1133.8 606.905 1130.46 641.52C1126.62 681.283 1099.62 708.705 1060.37 715.458C1057.29 671.638 1060.27 626.85 1069.96 581.002C1071.49 573.819 1073.17 566.607 1075.02 559.378Z" fill="#B2EDE3" stroke="#35D0BA" stroke-width="0.837127"/>
</g>
<path d="M1017.29 715.22C1074.75 719.447 1123.81 689.131 1126.87 647.509C1129.93 605.887 1085.83 568.719 1028.37 564.492C970.912 560.266 921.849 590.581 918.788 632.204C915.726 673.826 959.826 710.994 1017.29 715.22Z" stroke="#35D0BA" stroke-width="14.6463" stroke-linecap="round" stroke-linejoin="round"/>
<path d="M1106.25 630.917C1105.39 636.894 1099.85 641.043 1093.88 640.184C1087.9 639.325 1083.75 633.784 1084.61 627.807C1085.47 621.831 1091.01 617.682 1096.99 618.541C1102.96 619.399 1107.11 624.941 1106.25 630.917Z" fill="#35D0BA" stroke="#35D0BA" stroke-width="0.837127"/>
<path d="M1317.48 248.061C1318.17 256.843 1311.61 264.519 1302.83 265.206C1294.04 265.893 1286.37 259.331 1285.68 250.549C1284.99 241.767 1291.56 234.09 1300.34 233.403C1309.12 232.716 1316.8 239.279 1317.48 248.061Z" fill="#FFECCC" stroke="#FFAD1E" stroke-width="0.847451"/>
<path d="M1280.23 307.526L1280.23 307.526L1280.22 307.519L1230.78 270.737L1223.91 243.648L1241.01 216.881L1267.79 212.393L1293.36 225.046L1281 255.313L1280.88 255.62L1281.14 255.815L1302.26 271.2L1302.44 271.332L1302.65 271.257L1316.31 266.373L1316.6 266.269L1316.59 265.962L1315.79 239.015L1315.79 238.849L1315.67 238.73L1299.88 222.698L1316.18 204.288L1344.65 196.576L1372.83 215.03L1377.86 240.624L1321.87 329.529L1311.62 332.231L1280.23 307.526Z" fill="#FFECCC" stroke="#FFAD1E" stroke-width="0.847451"/>
<path d="M1253.87 290.321L1241.08 281.724C1223.33 269.795 1218.62 245.735 1230.55 227.98C1242.47 210.233 1266.53 205.515 1284.29 217.443L1297.08 226.041" stroke="#FFAD1E" stroke-width="14.8269" stroke-linecap="round" stroke-linejoin="round"/>
<path d="M1311.95 236.042L1297.07 226.047" stroke="#FFAD1E" stroke-width="14.8269" stroke-linecap="round" stroke-linejoin="round"/>
<path d="M1297.07 226.042L1287.07 240.915" stroke="#FFAD1E" stroke-width="14.8269" stroke-linecap="round" stroke-linejoin="round"/>
<path d="M1297.07 226.047L1305.58 213.386C1317.51 195.639 1341.57 190.921 1359.32 202.849C1377.07 214.778 1381.79 238.838 1369.86 256.593L1323.19 326.019C1320.4 330.164 1314.78 331.264 1310.64 328.482L1253.87 290.319" stroke="#FFAD1E" stroke-width="14.8269" stroke-linecap="round" stroke-linejoin="round"/>
<path d="M1311.95 236.043C1320.16 241.565 1322.35 252.704 1316.82 260.918C1311.3 269.132 1300.16 271.318 1291.95 265.795C1283.74 260.273 1281.55 249.134 1287.07 240.92" stroke="#FFAD1E" stroke-width="14.8269" stroke-linecap="round" stroke-linejoin="round"/>
<mask id="mask1_1170_12155" style="mask-type:luminance" maskUnits="userSpaceOnUse" x="1224" y="292" width="211" height="151">
<path d="M1433.63 354.443C1436.24 374.666 1427.01 394.514 1409.88 410.258C1392.76 426.001 1367.77 437.61 1338.98 441.328C1310.18 445.045 1283.07 440.163 1262.51 429.285C1241.94 418.406 1227.97 401.554 1225.36 381.33C1222.75 361.107 1231.98 341.259 1249.11 325.515C1266.23 309.772 1291.22 298.163 1320.02 294.446C1348.81 290.728 1375.93 295.611 1396.49 306.489C1417.05 317.368 1431.02 334.22 1433.63 354.443Z" fill="white" stroke="white" stroke-width="0.847451"/>
</mask>
<g mask="url(#mask1_1170_12155)">
<path d="M1462.97 340.89C1466.6 368.99 1455.06 396.371 1433.43 417.928C1411.79 439.485 1380.07 455.199 1343.38 459.935C1306.69 464.672 1272.02 457.53 1245.62 442.174C1219.22 426.819 1201.11 403.264 1197.48 375.165C1193.85 347.065 1205.39 319.684 1227.02 298.127C1248.66 276.569 1280.38 260.856 1317.07 256.119C1353.76 251.383 1388.43 258.525 1414.83 273.88C1441.23 289.236 1459.34 312.791 1462.97 340.89Z" fill="#FFAD1E" stroke="#FFAD1E" stroke-width="0.847451"/>
<path d="M1315.01 330.047C1314.71 326.835 1314.45 323.6 1314.22 320.364C1314.21 320.211 1314.2 320.056 1314.18 319.897L1314.18 319.885C1314.17 319.73 1314.15 319.571 1314.14 319.411L1314.14 319.408C1313.85 315.22 1313.63 311.005 1313.46 306.777L1313.46 306.777C1313.45 306.442 1313.44 306.105 1313.43 305.772C1313.42 305.437 1313.41 305.105 1313.4 304.777L1313.4 304.775C1313.13 297.273 1313.05 289.715 1313.15 282.093C1301.35 285.961 1290.15 291.208 1279.9 297.414L1279.9 297.415C1278.87 298.029 1277.85 298.649 1276.84 299.288C1276.77 303.645 1276.75 308 1276.84 312.34L1276.84 312.341C1277.01 320.793 1277.5 329.23 1278.27 337.649L1278.27 337.65C1278.51 340.247 1278.78 342.84 1279.07 345.432C1279.37 348.049 1279.69 350.67 1280.04 353.278L1280.04 353.278C1284.06 382.976 1291.72 412.495 1302.65 441.851C1315.29 443.98 1328.63 444.589 1342.08 443.404C1327.74 407.391 1318.7 369.611 1315.01 330.047ZM1315.01 330.047C1315.01 330.047 1315.01 330.047 1315.01 330.047L1315.43 330.008L1315.01 330.047ZM1277.85 337.687C1278.09 340.289 1278.36 342.885 1278.65 345.479L1277.85 337.687ZM1277.85 337.687C1277.08 329.259 1276.59 320.812 1276.42 312.349L1277.85 337.687ZM1234.66 350.017C1235.99 374.015 1240.61 397.342 1248.66 419.957C1235.62 410.087 1226.77 397.72 1224.32 383.817L1224.16 382.93C1222.4 371.63 1224.87 359.636 1230.63 347.89L1230.63 347.89C1231.7 345.704 1232.9 343.534 1234.2 341.375C1234.24 341.31 1234.27 341.245 1234.31 341.18C1234.32 341.308 1234.32 341.437 1234.32 341.564C1234.39 344.388 1234.5 347.205 1234.66 350.017ZM1358.58 275.737C1358.58 275.522 1358.58 275.305 1358.57 275.086C1358.66 275.087 1358.75 275.089 1358.83 275.093L1358.83 275.093L1358.84 275.094C1364.02 275.309 1369.02 275.915 1373.82 276.877C1405.87 283.321 1428.8 306.156 1434.93 340.825C1441.96 380.647 1423.06 414.715 1386.61 431.94C1371.72 390.036 1362.49 345.543 1359.52 298.197C1359.05 290.778 1358.74 283.289 1358.58 275.737Z" fill="#FFE5B8" stroke="#FFAD1E" stroke-width="0.847451"/>
</g>
<path d="M1338.17 444.387C1396.11 437.743 1439.19 398.33 1434.37 356.355C1429.56 314.381 1378.68 285.74 1320.74 292.384C1262.79 299.028 1219.72 338.441 1224.53 380.416C1229.34 422.39 1280.22 451.031 1338.17 444.387Z" stroke="#FFAD1E" stroke-width="14.8269" stroke-linecap="round" stroke-linejoin="round"/>
<path d="M1408.44 337.051C1409.22 343.114 1404.94 348.663 1398.88 349.445C1392.82 350.228 1387.27 345.948 1386.49 339.886C1385.7 333.823 1389.98 328.275 1396.05 327.492C1402.11 326.709 1407.66 330.989 1408.44 337.051Z" fill="#FFAD1E" stroke="#FFAD1E" stroke-width="0.847451"/>
</svg>
